# xmcd CD database file
#
# Track frame offsets:
#	150
#	14580
#	28037
#	41432
#	54755
#	70360
#	86217
#	101345
#	116227
#	130915
#	146220
#	160322
#	174915
#	189222
#	202860
#	216197
#	229690
#	242827
#	256425
#	269665
#	283572
#	296800
#	310987
#
# Disc length: 4333 seconds
#
# Revision: 0
# Processed by: cddbd v1.5.2PL0 Copyright (c) Steve Scherf et al.
# Submitted via: CDex 1.99.1
#
DISCID=5910eb17
DTITLE=Barbecue Bob (Robert Hicks) - Complete Recorded Works In Chronological Order Vol.2 (4/21/1928 to 11/3/1929
DYEAR=1900
DGENRE=Blues
TTITLE0=Mississippi Low-Levee Blues
TTITLE1=Ease It To Me Blues
TTITLE2=Jacksonville Blues (Nellie Florence vcl)
TTITLE3=Midnight Weeping Blues (Nellie Florence vcl )
TTITLE4=She's Gone Blues
TTITLE5=Cold Wave Blues
TTITLE6=Beggin' For Love
TTITLE7=Bad Time Blues
TTITLE8=Meat Man Pete
TTITLE9=Dollar Down Blues
TTITLE10=It Just Won't Hay
TTITLE11=It's Just Too Bad
TTITLE12=Good Time Rounder
TTITLE13=Honey You're Going Too Fast
TTITLE14=Red Hot Mama Papa's Goning To Cool You Off
TTITLE15=California Blues
TTITLE16=It's A Funny Little Thing
TTITLE17=Black Skunk Blues
TTITLE18=Yo Yo Blues
TTITLE19=Trouble Done Bore Me Down
TTITLE20=Freeze To Me Mama
TTITLE21=Me And My Whiskey
TTITLE22=Unnamed Blues
EXTD=
EXTT0=
EXTT1=
EXTT2=
EXTT3=
EXTT4=
EXTT5=
EXTT6=
EXTT7=
EXTT8=
EXTT9=
EXTT10=
EXTT11=
EXTT12=
EXTT13=
EXTT14=
EXTT15=
EXTT16=
EXTT17=
EXTT18=
EXTT19=
EXTT20=
EXTT21=
EXTT22=
PLAYORDER=
